<?xml version="1.0" standalone="no"?>
<!DOCTYPE svg PUBLIC "-//W3C//DTD SVG 20010904//EN"
 "http://www.w3.org/TR/2001/REC-SVG-20010904/DTD/svg10.dtd">
<svg version="1.0" xmlns="http://www.w3.org/2000/svg"
 width="317.000000pt" height="306.000000pt" viewBox="0 0 317.000000 306.000000"
 preserveAspectRatio="xMidYMid meet">

<g transform="translate(0.000000,306.000000) scale(0.100000,-0.100000)"
fill="#01bf71" stroke="none">
<path d="M194 2917 c-2 -7 -3 -116 -2 -242 l3 -230 405 -3 406 -2 984 -1125
c541 -619 987 -1125 992 -1125 4 0 7 615 6 1368 l-3 1367 -644 3 c-355 1 -649
-2 -653 -6 -5 -5 84 -115 198 -245 l207 -237 203 0 204 0 0 -480 c0 -264 -3
-480 -7 -479 -5 0 -132 143 -283 317 -489 561 -912 1046 -952 1090 l-39 42
-510 0 c-403 0 -511 -3 -515 -13z"/>
<path d="M195 2118 c-3 -7 -4 -461 -3 -1008 l3 -995 654 -3 c575 -2 653 0 647
13 -3 8 -96 118 -207 245 l-202 230 -203 0 -204 0 0 482 c0 458 1 480 18 465
9 -8 296 -335 637 -726 l620 -710 318 -1 c200 0 317 4 315 10 -1 5 -397 459
-878 1009 l-875 1001 -318 0 c-245 0 -319 -3 -322 -12z"/>
</g>
</svg>
